# xmcd CD database file
#
# Track frame offsets:
#	150
#	23771
#	37658
#	59857
#	76442
#
# Disc length: 1353 seconds
#
# Revision: 0
# Processed by: cddbd v1.5.1PL0 Copyright (c) Steve Scherf et al.
# Submitted via: CDex 1.51
#
DISCID=36054705
DTITLE=渡辺　美里 - うたの木　Seasons”春”
DYEAR=2005
DGENRE=Pop
TTITLE0=さくらの花の咲くころに
TTITLE1=早春賦
TTITLE2=メドレー（さくら〜花）
TTITLE3=春一番
TTITLE4=卒業
EXTD=YEAR: 2005
EXTT0=
EXTT1=
EXTT2=
EXTT3=
EXTT4=
PLAYORDER=
